# xmcd CD database file
#
# Track frame offsets:
#	150
#	12649
#	30121
#	41626
#	54170
#	74164
#	88411
#	101526
#	115462
#	124807
#	140679
#	152493
#	162980
#	172777
#	190221
#	203307
#	212743
#	231138
#	241209
#	254114
#
# Disc length: 3562 seconds
#
# Revision: 0
# Processed by: cddbd v1.5.2PL0 Copyright (c) Steve Scherf et al.
# Submitted via: CDex 2.21
#
DISCID=170de814
DTITLE=Various Artist - On The Road 2
DYEAR=2018
DGENRE=Country
TTITLE0=Jerry Reed - East Bound And Down
TTITLE1=Tommy Hill - Convoy
TTITLE2=Willie Nelson - On The Road Again
TTITLE3=Del Reeves - Girl On The Billboard
TTITLE4=Alabama - Roll On Eighteen Wheeler
TTITLE5=Ricky Skaggs - Highway 40 Blues 
TTITLE6=Red Simpson - Beaver On My Lap Bear On My Tail 
TTITLE7=Johnny Paycheck - Ragged Old Truck
TTITLE8=Johnny Horton - I'm Coming Home
TTITLE9=Charlie Craig -  Lay Me Down A Truck Driving Man
TTITLE10=David Alan Coe - 18 Wheels Hummin Home Sweet Home
TTITLE11=David Frizell - Midnight Run To Dixie  
TTITLE12=Moore and Napier - Lonesome Truck Driver
TTITLE13=The Byrds - Drug Store Truck Drivin? Man  
TTITLE14=Dave Dudley - Roll Truck Roll
TTITLE15=Willis Brothers - Gear Shiftin 
TTITLE16=Kris Kristofferson - Me And Bobby McGee 
TTITLE17=Del Reeves - Looking At The World Through A Windshield
TTITLE18=Red Sovine - Truck Drivers Prayer 
TTITLE19=Ken Brumby - Maggie (Theme from 'The Truckies')
EXTD=YEAR: 2018
EXTT0=
EXTT1=
EXTT2=
EXTT3=
EXTT4=
EXTT5=
EXTT6=
EXTT7=
EXTT8=
EXTT9=
EXTT10=
EXTT11=
EXTT12=
EXTT13=
EXTT14=
EXTT15=
EXTT16=
EXTT17=
EXTT18=
EXTT19=
PLAYORDER=
